<?xml version="1.0" encoding="utf-8"?>
<!-- Generator: Adobe Illustrator 28.1.0, SVG Export Plug-In . SVG Version: 6.00 Build 0)  -->
<svg version="1.1" id="Слой_1" xmlns="http://www.w3.org/2000/svg" xmlns:xlink="http://www.w3.org/1999/xlink" x="0px" y="0px"
	 viewBox="0 0 24 24" style="enable-background:new 0 0 24 24;" xml:space="preserve">
<style type="text/css">
	.st0{fill:#D64141;}
</style>
<path class="st0" d="M22.3,8.4c0,0.7-0.1,1.5-0.3,2.2c-0.3,0.7-0.7,1.5-1.4,2.4c-0.6,0.9-1.5,1.9-2.6,3c-1.1,1.1-2.5,2.4-4.2,3.9
	l-1.5,1.3l-1.4-1.3c-1.7-1.5-3.1-2.8-4.2-3.9c-1.1-1.1-1.9-2.1-2.6-3S3,11.3,2.7,10.6C2.4,9.9,2.3,9.2,2.3,8.4
	c0-1.6,0.5-2.9,1.6-3.9c1-1.1,2.3-1.6,3.9-1.6c0.9,0,1.7,0.1,2.5,0.4c0.8,0.3,1.4,0.8,2,1.5c0.5-0.6,1.2-1.1,2-1.5
	c0.8-0.3,1.6-0.5,2.5-0.5c1.5,0,2.9,0.6,3.9,1.6C21.8,5.5,22.3,6.8,22.3,8.4z"/>
</svg>
