<svg width="28" height="28" viewBox="0 0 28 28" fill="none" xmlns="http://www.w3.org/2000/svg">
<path fill-rule="evenodd" clip-rule="evenodd" d="M18.041 17.856C17.971 17.9095 17.9085 17.972 17.855 18.042C16.5526 19.3007 14.8113 20.003 13 20C12.0805 20.0014 11.1699 19.821 10.3204 19.4692C9.47085 19.1173 8.69928 18.6011 8.05001 17.95C7.3989 17.3008 6.88259 16.5292 6.53077 15.6797C6.17896 14.8302 5.99857 13.9195 6.00001 13C6.00001 11.067 6.78201 9.31801 8.05001 8.05001C8.69928 7.39895 9.47085 6.88267 10.3204 6.53085C11.1699 6.17904 12.0805 5.99863 13 6.00001C14.933 6.00001 16.682 6.78201 17.95 8.05001C18.6011 8.69925 19.1174 9.47081 19.4692 10.3203C19.8211 11.1698 20.0014 12.0805 20 13C20.0028 14.8117 19.3002 16.5534 18.041 17.856ZM23.707 22.293L20.032 18.618C21.3086 17.0241 22.0029 15.0421 22 13C22.0014 11.8179 21.7693 10.6471 21.3169 9.55502C20.8646 8.46288 20.2009 7.47089 19.364 6.63601C18.5291 5.79913 17.5371 5.13545 16.445 4.68308C15.3529 4.23071 14.1821 3.99858 13 4.00001C11.8179 3.99858 10.6471 4.23071 9.55502 4.68308C8.46288 5.13545 7.47089 5.79913 6.63601 6.63601C5.79913 7.47089 5.13545 8.46288 4.68308 9.55502C4.23071 10.6471 3.99858 11.8179 4.00001 13C3.99858 14.1821 4.23071 15.3529 4.68308 16.445C5.13545 17.5371 5.79913 18.5291 6.63601 19.364C7.47089 20.2009 8.46288 20.8646 9.55502 21.3169C10.6471 21.7693 11.8179 22.0014 13 22C15.0421 22.0029 17.0241 21.3086 18.618 20.032L22.293 23.707C22.4805 23.8945 22.7348 23.9999 23 23.9999C23.2652 23.9999 23.5195 23.8945 23.707 23.707C23.8945 23.5195 23.9999 23.2652 23.9999 23C23.9999 22.7348 23.8945 22.4805 23.707 22.293Z" fill="black"/>
</svg>
